<svg width="20" height="20" viewBox="0 0 20 20" fill="none" xmlns="http://www.w3.org/2000/svg">
<circle cx="10" cy="10" r="10" fill="#161616"/>
<path fill-rule="evenodd" clip-rule="evenodd" d="M10.5402 13.7709C10.3994 13.9176 10.2084 14 10.0092 14C9.81007 14 9.61906 13.9176 9.47821 13.7709L5.2293 9.34511C5.15756 9.27294 5.10034 9.18661 5.06098 9.09116C5.02161 8.9957 5.00089 8.89304 5.00003 8.78916C4.99916 8.68528 5.01817 8.58226 5.05593 8.48611C5.0937 8.38996 5.14947 8.30261 5.21999 8.22915C5.29051 8.15569 5.37437 8.0976 5.46668 8.05826C5.55898 8.01892 5.65789 7.99913 5.75762 8.00003C5.85734 8.00093 5.9559 8.02251 6.04754 8.06352C6.13917 8.10452 6.22205 8.16412 6.29134 8.23885L10.0092 12.1115L13.7271 8.23885C13.8688 8.09633 14.0585 8.01747 14.2554 8.01926C14.4524 8.02104 14.6408 8.10332 14.78 8.24838C14.9193 8.39343 14.9983 8.58966 15 8.79479C15.0017 8.99993 14.926 9.19755 14.7892 9.34511L10.5402 13.7709Z" fill="#FFDE5B"/>
</svg>
