<svg width="42" height="42" viewBox="0 0 42 42" fill="none" xmlns="http://www.w3.org/2000/svg">
<path d="M22.767 2.19801C22.0155 0.780458 19.9845 0.780455 19.233 2.19801L13.3307 13.3307L2.19801 19.233C0.780458 19.9845 0.780455 22.0155 2.19801 22.767L13.3307 28.6693L19.233 39.802C19.9845 41.2195 22.0155 41.2195 22.767 39.802L28.6693 28.6693L39.802 22.767C41.2195 22.0155 41.2195 19.9845 39.802 19.233L28.6693 13.3307L22.767 2.19801Z" fill="#FAF9D9" stroke="#493800" stroke-width="2"/>
<path d="M20.1165 6.476C20.4923 5.76722 21.5078 5.76722 21.8836 6.476L26.4659 15.1191C26.5597 15.2958 26.7043 15.4404 26.881 15.5342L35.5241 20.1165C36.2329 20.4923 36.2329 21.5078 35.5241 21.8836L26.881 26.4659C26.7043 26.5597 26.5597 26.7043 26.4659 26.881L21.8836 35.5241C21.5078 36.2329 20.4923 36.2329 20.1165 35.5241L15.5342 26.881C15.4404 26.7043 15.2958 26.5597 15.1191 26.4659L6.476 21.8836C5.76722 21.5078 5.76722 20.4923 6.476 20.1165L15.1191 15.5342C15.2958 15.4404 15.4404 15.2958 15.5342 15.1191L20.1165 6.476Z" fill="#FAD56B"/>
</svg>
