<svg width="25" height="25" viewBox="0 0 25 25" fill="none" xmlns="http://www.w3.org/2000/svg">
<rect x="0.369141" y="0.0219727" width="24" height="24" rx="12" fill="#EBE7DE"/>
<path d="M16.6824 13.5197C17.614 13.5197 18.3691 14.2748 18.3691 15.2065V15.8953C18.3691 16.3253 18.2347 16.7446 17.9847 17.0945C16.8252 18.7169 14.9319 19.5207 12.3667 19.5207C9.80087 19.5207 7.90858 18.7166 6.75192 17.0933C6.50294 16.7439 6.36914 16.3255 6.36914 15.8964V15.2065C6.36914 14.2748 7.1243 13.5197 8.05585 13.5197H16.6824ZM12.3667 4.52295C14.4378 4.52295 16.1168 6.20194 16.1168 8.27307C16.1168 10.3442 14.4378 12.0232 12.3667 12.0232C10.2955 12.0232 8.61655 10.3442 8.61655 8.27307C8.61655 6.20194 10.2955 4.52295 12.3667 4.52295Z" fill="#AD8E74"/>
</svg>
