<svg width="368" height="300" viewBox="0 0 368 300" fill="none" xmlns="http://www.w3.org/2000/svg">
<g opacity="0.1">
<path d="M80.2306 292.044C82.3201 292.897 84.4927 293.593 86.4886 294.633C114.255 309.082 143.881 316.172 175.036 318.137C234.487 321.889 283.075 276.431 282.555 217.073C282.139 169.608 245.049 128.037 197.656 121.363C183.311 119.346 169.381 120.178 155.576 124.243C148.809 126.239 141.927 127.621 135.274 124.607C126.407 120.584 121.282 113.525 120.523 103.67C119.764 93.7739 123.382 85.5304 132.291 81.2268C140.305 77.3597 148.944 74.1995 157.666 72.4427C245.257 54.8122 321.922 129.045 310.384 213.383C305.602 248.353 288.668 276.347 261.162 298.167C258.261 300.465 255.278 302.668 252.929 306.047C254.665 305.288 256.505 304.716 258.116 303.76C305.186 275.641 330.114 233.903 332.422 179.452C336.019 94.6471 269.571 38.6162 212.355 29.0005C153.248 19.0626 104.556 37.0257 66.7167 83.5553C55.4897 97.3707 42.3708 100.5 28.8464 91.6429C20.1767 85.967 16.5279 77.2141 19.8544 67.4217C21.8296 61.6107 24.7507 55.9245 28.2123 50.8411C59.0865 5.45506 102.144 -21.0947 156.065 -29.754C238.531 -43.008 333.524 2.40923 361.217 106.207C389.482 212.146 319.178 306.089 226.992 328.875C192.937 337.295 159.059 335.726 125.617 325.06C106.999 319.124 92.1333 307.835 80.2306 292.044Z" fill="#50596B"/>
<path d="M233.365 278.437C220.433 297.991 194.289 308.355 170.037 303.552C139.89 297.585 117.831 271.358 116.792 240.286C115.835 211.429 137.032 183.517 166.274 176.375C188.447 170.97 208.811 175.367 226.369 190.513C236.817 199.526 242.264 211.314 244.374 224.641C245.881 234.153 242.461 242.469 235.871 249.226C227.149 258.166 211.712 256.867 203.967 246.336C200.973 242.261 199.165 237.209 197.314 232.406C190.724 215.337 174.663 209.682 158.758 218.996C137.188 231.637 132.582 257.906 148.477 277.73C162.843 295.652 188.364 301.66 210.579 291.66C218.552 288.084 225.797 282.897 233.365 278.437Z" fill="#50596B"/>
<path d="M25.3648 129.295C38.2342 129.274 49.773 140.854 49.9498 153.953C50.1265 167.009 37.6625 179.286 24.4812 179.037C11.4974 178.787 0.0416937 167.144 0.000112334 154.14C-0.0414691 140.595 11.4662 129.316 25.3648 129.295Z" fill="#50596B"/>
<path d="M75.1138 235.224C74.9475 244.694 67.0782 252.345 57.7432 252.127C48.8448 251.919 40.3414 243.363 40.383 234.662C40.4349 225.65 48.6369 217.406 57.6808 217.281C67.5564 217.146 75.2905 225.099 75.1138 235.224Z" fill="#50596B"/>
</g>
</svg>
