<?xml version="1.0" encoding="utf-8"?>
<!-- Generator: Adobe Illustrator 27.9.0, SVG Export Plug-In . SVG Version: 6.00 Build 0)  -->
<svg version="1.1" xmlns="http://www.w3.org/2000/svg" xmlns:xlink="http://www.w3.org/1999/xlink" x="0px" y="0px"
 viewBox="0 0 708.66 283.46" style="enable-background:new 0 0 708.66 283.46;" xml:space="preserve">
<style type="text/css">
.st0{opacity:0.7;fill:url(#SVGID_1_);}
.st1{opacity:0.7;fill:url(#SVGID_00000043459545309943625320000012322431501847607991_);}
.st2{fill:#50ACD5;}
.st3{fill:url(#SVGID_00000137839793616602663810000013493613734851964569_);}
</style>
<g id="레이어_1">
</g>
<g id="레이어_3">
</g>
<g id="레이어_4">
</g>
<g id="레이어_2">
<g>
<linearGradient id="SVGID_1_" gradientUnits="userSpaceOnUse" x1="320.0687" y1="194.2862" x2="432.6388" y2="194.2862">
<stop  offset="0" style="stop-color:#4FADD5"/>
<stop  offset="1" style="stop-color:#BCE2ED"/>
</linearGradient>
<path class="st0" d="M320.07,182.79c0,13.94,22.93,24.11,36.87,24.11c13.93,0,25.23-11.3,25.23-25.24s11.3-25.24,25.24-25.24
c13.94,0,25.23,11.3,25.23,25.24c0,27.88-22.59,50.47-50.47,50.47C354.3,232.14,320.07,210.67,320.07,182.79z"/>

<linearGradient id="SVGID_00000052825310931502117490000007818510600531808931_" gradientUnits="userSpaceOnUse" x1="1223.8499" y1="203.8977" x2="1321.8844" y2="203.8977" gradientTransform="matrix(-1 0 0 1 1647.1947 0)">
<stop  offset="0" style="stop-color:#4FADD5"/>
<stop  offset="1" style="stop-color:#BCE2ED"/>
</linearGradient>
<path style="opacity:0.7;fill:url(#SVGID_00000052825310931502117490000007818510600531808931_);" d="M423.34,209.08
c-4.14,7.76-29.86,6.45-38.65,6.45c-8.79,0-27.54-14.47-27.54-23.26s-7.13-15.92-15.92-15.92c-8.79,0-15.92,7.13-15.92,15.92
c0,17.59,25.87,39.18,43.46,39.18C386.36,231.45,414.59,225.46,423.34,209.08z"/>
<circle class="st2" cx="358.21" cy="166.49" r="8.06"/>
<circle class="st2" cx="376.35" cy="134.5" r="14.24"/>

<linearGradient id="SVGID_00000000188066237458663950000008779922281883173806_" gradientUnits="userSpaceOnUse" x1="394.6966" y1="226.4429" x2="364.1333" y2="98.8">
<stop  offset="0" style="stop-color:#4FADD5"/>
<stop  offset="1" style="stop-color:#BCE2ED"/>
</linearGradient>
<path style="fill:url(#SVGID_00000000188066237458663950000008779922281883173806_);" d="M379.52,99.45
c35.07,0,63.59,28.53,63.59,63.59s-28.53,63.59-63.59,63.59s-63.59-28.53-63.59-63.59S344.45,99.45,379.52,99.45 M379.52,93.31
c-38.51,0-69.73,31.22-69.73,69.73s31.22,69.73,69.73,69.73s69.73-31.22,69.73-69.73S418.03,93.31,379.52,93.31L379.52,93.31z"/>
</g>
<g>
<g>
<path class="st2" d="M76.85,42.48h114.62c2.78,0.16,4.56,1.32,5.34,3.48c2.16,13.46,3.63,22.12,4.41,25.99
c0.15,2.94-1.08,4.72-3.71,5.34c-3.4-7.42-10.21-11.29-20.42-11.6h-52.9v54.29h63.58c1.24,0.16,1.86,0.78,1.86,1.86v18.33
c0,1.39-0.62,2.09-1.86,2.09h-63.58v50.12c0,19.8-12.3,31.71-36.89,35.73h-0.93c-1.39,0-2.09-0.62-2.09-1.86V71.49
c-0.31-10.83-5.65-18.87-16.01-24.13C68.27,44.11,71.13,42.48,76.85,42.48z"/>
<path class="st2" d="M266.88,41.32c1.7,0,2.63,0.93,2.78,2.78v55.22v92.81c0.31,8.35,2.16,13.69,5.57,16.01
c3.4,2.32,7.58,3.25,12.53,2.78c4.33-0.46,7.73-0.77,10.21-0.93c2.01,0.16,3.05,1.51,3.13,4.06c0.08,2.55-0.97,4.6-3.13,6.15
c-9.59,9.12-19.03,13.69-28.31,13.69h-4.41c-22.27,0-33.41-13.61-33.41-40.84V76.13c0-8.04-5.03-15.23-15.08-21.58v-0.7
c-0.16-2.16,1-3.56,3.48-4.18C247.31,44.42,262.86,41.64,266.88,41.32z"/>
<path class="st2" d="M455.05,100.03h60.09c4.18,0,6.27,1.86,6.27,5.57c-8.04,1.39-12.3,5.65-12.76,12.76l0.7,6.5l13.46,50.58
h1.16h-1.16l33.41-69.14h10.67c2.63-0.31,4.64,1.01,6.03,3.94l25.99,62.18h0.7l16.71-52.9v-1.86c0.46-5.41-3.02-9.75-10.44-12.99
v-0.93c0.93-2.47,2.94-3.71,6.03-3.71h40.37c4.18,0,6.27,1.86,6.27,5.57c-8.67,1.86-14.7,6.19-18.1,12.99L603.78,222.3
c-0.46,2.32-2.24,3.56-5.34,3.71h-10.67c-3.1,0-4.95-1.39-5.57-4.18l-26.22-65.9h-0.93l-32.25,68.22
c-1.7,1.24-3.33,1.86-4.87,1.86h-7.89c-4.02,0.31-6.58-1.01-7.66-3.94l-32.72-98.15c-5.26-11.6-11.91-17.48-19.95-17.63
l-0.7-1.62v-0.93C449.94,101.27,451.95,100.03,455.05,100.03z"/>
</g>
</g>
</g>
</svg>