<svg width="40" height="40" viewBox="0 0 40 40" fill="none" xmlns="http://www.w3.org/2000/svg">
<g clip-path="url(#clip0_1196_770)">
<path fill-rule="evenodd" clip-rule="evenodd" d="M5.12686 9.36159C5.2531 9.05711 5.46679 8.7969 5.7409 8.61386C6.01502 8.43082 6.33725 8.33317 6.66686 8.33325H23.3335C24.8656 8.33325 26.3827 8.63502 27.7982 9.22132C29.2136 9.80763 30.4998 10.667 31.5831 11.7503C32.6665 12.8337 33.5258 14.1198 34.1121 15.5353C34.6984 16.9507 35.0002 18.4678 35.0002 19.9999C35.0002 21.532 34.6984 23.0491 34.1121 24.4646C33.5258 25.88 32.6665 27.1661 31.5831 28.2495C30.4998 29.3328 29.2136 30.1922 27.7982 30.7785C26.3827 31.3648 24.8656 31.6666 23.3335 31.6666H8.33353C7.8915 31.6666 7.46758 31.491 7.15502 31.1784C6.84245 30.8659 6.66686 30.4419 6.66686 29.9999C6.66686 29.5579 6.84245 29.134 7.15502 28.8214C7.46758 28.5088 7.8915 28.3333 8.33353 28.3333H23.3335C25.5437 28.3333 27.6633 27.4553 29.2261 25.8925C30.7889 24.3297 31.6669 22.2101 31.6669 19.9999C31.6669 17.7898 30.7889 15.6702 29.2261 14.1074C27.6633 12.5446 25.5437 11.6666 23.3335 11.6666H10.6902L13.6785 14.6549C13.9821 14.9693 14.1501 15.3903 14.1463 15.8273C14.1425 16.2642 13.9672 16.6823 13.6582 16.9913C13.3492 17.3003 12.9312 17.4756 12.4942 17.4794C12.0572 17.4832 11.6362 17.3152 11.3219 17.0116L5.48853 11.1783C5.25531 10.9452 5.09646 10.6482 5.03208 10.3248C4.9677 10.0014 5.00069 9.66621 5.12686 9.36159Z" fill="black"/>
</g>
<defs>
<clipPath id="clip0_1196_770">
<rect width="40" height="40" fill="white"/>
</clipPath>
</defs>
</svg>
